{
  "accessors": [
    {
      "bufferView": 2,
      "componentType": 5126,
      "count": 2749,
      "max": [
        0.33599990606307983,
        0.46369999647140503,
        1.1392998695373535
      ],
      "min": [
        -0.3360999524593353,
        -2.4105005264282227,
        -0.4026000201702118
      ],
      "type": "VEC3"
    },
    {
      "bufferView": 2,
      "byteOffset": 32988,
      "componentType": 5126,
      "count": 2749,
      "max": [
        1.0,
        1.0000001192092896,
        0.9999998807907104
      ],
      "min": [
        -1.0,
        -1.0000001192092896,
        -0.9999998807907104
      ],
      "type": "VEC3"
    },
    {
      "bufferView": 1,
      "componentType": 5126,
      "count": 2749,
      "max": [
        0.9936519861221313,
        0.9920290112495422
      ],
      "min": [
        0.005526958964765072,
        0.0066009750589728355
      ],
      "type": "VEC2"
    },
    {
      "bufferView": 0,
      "componentType": 5125,
      "count": 5562,
      "type": "SCALAR"
    },
    {
      "bufferView": 2,
      "byteOffset": 65976,
      "componentType": 5126,
      "count": 2749,
      "max": [
        0.33599990606307983,
        0.46369999647140503,
        1.1392998695373535
      ],
      "min": [
        -0.3360999524593353,
        -2.4105005264282227,
        -0.4026000201702118
      ],
      "type": "VEC3"
    },
    {
      "bufferView": 2,
      "byteOffset": 98964,
      "componentType": 5126,
      "count": 2749,
      "max": [
        1.0,
        1.0000001192092896,
        0.9999998807907104
      ],
      "min": [
        -1.0,
        -1.0000001192092896,
        -0.9999998807907104
      ],
      "type": "VEC3"
    },
    {
      "bufferView": 1,
      "byteOffset": 21992,
      "componentType": 5126,
      "count": 2749,
      "max": [
        0.9936519861221313,
        0.9920290112495422
      ],
      "min": [
        0.005526958964765072,
        0.0066009750589728355
      ],
      "type": "VEC2"
    },
    {
      "bufferView": 0,
      "byteOffset": 22248,
      "componentType": 5125,
      "count": 5562,
      "type": "SCALAR"
    }
  ],
  "asset": {
    "extras": {
      "author": "Tigerar1 (https://sketchfab.com/allanromanreyes)",
      "license": "SKETCHFAB Standard (https://sketchfab.com/licenses)",
      "source": "https://sketchfab.com/3d-models/shockwave-gun-369396ce1eb448b8bd54f14defdab044",
      "title": "Shockwave Gun"
    },
    "generator": "Sketchfab-16.29.0",
    "version": "2.0"
  },
  "bufferViews": [
    {
      "buffer": 0,
      "byteLength": 44496,
      "name": "floatBufferViews",
      "target": 34963
    },
    {
      "buffer": 0,
      "byteLength": 43984,
      "byteOffset": 44496,
      "byteStride": 8,
      "name": "floatBufferViews",
      "target": 34962
    },
    {
      "buffer": 0,
      "byteLength": 131952,
      "byteOffset": 88480,
      "byteStride": 12,
      "name": "floatBufferViews",
      "target": 34962
    }
  ],
  "buffers": [
    {
      "byteLength": 220432,
      "uri": "scene.bin"
    }
  ],
  "images": [
    {
      "uri": "textures/material000_baseColor.png"
    }
  ],
  "materials": [
    {
      "doubleSided": true,
      "name": "material000",
      "pbrMetallicRoughness": {
        "baseColorTexture": {
          "index": 0
        },
        "metallicFactor": 0.0,
        "roughnessFactor": 0.8318207169492571
      }
    }
  ],
  "meshes": [
    {
      "name": "Object_0",
      "primitives": [
        {
          "attributes": {
            "NORMAL": 1,
            "POSITION": 0,
            "TEXCOORD_0": 2
          },
          "indices": 3,
          "material": 0,
          "mode": 4
        }
      ]
    },
    {
      "name": "Object_1",
      "primitives": [
        {
          "attributes": {
            "NORMAL": 5,
            "POSITION": 4,
            "TEXCOORD_0": 6
          },
          "indices": 7,
          "material": 0,
          "mode": 4
        }
      ]
    }
  ],
  "nodes": [
    {
      "children": [
        1
      ],
      "matrix": [
        1.0,
        0.0,
        0.0,
        0.0,
        0.0,
        2.220446049250313e-16,
        -1.0,
        0.0,
        0.0,
        1.0,
        2.220446049250313e-16,
        0.0,
        0.0,
        0.0,
        0.0,
        1.0
      ],
      "name": "Sketchfab_model"
    },
    {
      "children": [
        2
      ],
      "name": "Collada visual scene group"
    },
    {
      "children": [
        3
      ],
      "matrix": [
        1.0,
        0.0,
        2.22045e-16,
        0.0,
        -2.22045e-16,
        1.0,
        2.38419e-07,
        0.0,
        0.0,
        -2.38419e-07,
        1.0,
        0.0,
        0.0,
        0.0,
        0.0,
        1.0
      ],
      "name": "Armature"
    },
    {
      "children": [
        4,
        5
      ],
      "name": "Object_3"
    },
    {
      "mesh": 0,
      "name": "Object_4"
    },
    {
      "mesh": 1,
      "name": "Object_5"
    }
  ],
  "samplers": [
    {
      "magFilter": 9729,
      "minFilter": 9987,
      "wrapS": 10497,
      "wrapT": 10497
    }
  ],
  "scene": 0,
  "scenes": [
    {
      "name": "Sketchfab_Scene",
      "nodes": [
        0
      ]
    }
  ],
  "textures": [
    {
      "sampler": 0,
      "source": 0
    }
  ]
}
